<?xml version="1.0" encoding="UTF-8" standalone="no"?>
<!DOCTYPE svg PUBLIC "-//W3C//DTD SVG 1.1//EN" "http://www.w3.org/Graphics/SVG/1.1/DTD/svg11.dtd">
<svg width="100%" height="100%" viewBox="0 0 1024 1024" version="1.1" xmlns="http://www.w3.org/2000/svg" xmlns:xlink="http://www.w3.org/1999/xlink" xml:space="preserve" xmlns:serif="http://www.serif.com/" style="fill-rule:evenodd;clip-rule:evenodd;stroke-linejoin:round;stroke-miterlimit:2;">
    <g transform="matrix(1.02767,0,0,1.01641,-73.0429,-149.254)">
        <rect x="71.076" y="146.844" width="291.924" height="295.156" style="fill:#989a9a;"/>
    </g>
    <g transform="matrix(1.02767,0,0,1.01641,288.957,-149.254)">
        <rect x="71.076" y="146.844" width="291.924" height="295.156" style="fill:#989a9a;"/>
    </g>
    <g transform="matrix(1.02767,0,0,1.01641,650.957,-149.254)">
        <rect x="71.076" y="146.844" width="291.924" height="295.156" style="fill:#989a9a;"/>
    </g>
    <g transform="matrix(1.02767,0,0,1.01641,-73.0429,212.746)">
        <rect x="71.076" y="146.844" width="291.924" height="295.156" style="fill:#989a9a;"/>
    </g>
    <g transform="matrix(1.02767,0,0,1.01641,288.957,212.746)">
        <rect x="71.076" y="146.844" width="291.924" height="295.156" style="fill:#989a9a;"/>
    </g>
    <g transform="matrix(1.02767,0,0,1.01641,650.957,212.746)">
        <rect x="71.076" y="146.844" width="291.924" height="295.156" style="fill:#989a9a;"/>
    </g>
    <g transform="matrix(1.02767,0,0,1.01641,-73.0429,574.746)">
        <rect x="71.076" y="146.844" width="291.924" height="295.156" style="fill:#989a9a;"/>
    </g>
    <g transform="matrix(1.02767,0,0,1.01641,288.957,574.746)">
        <rect x="71.076" y="146.844" width="291.924" height="295.156" style="fill:#989a9a;"/>
    </g>
    <g transform="matrix(1.02767,0,0,1.01641,650.957,574.746)">
        <rect x="71.076" y="146.844" width="291.924" height="295.156" style="fill:#989a9a;"/>
    </g>
</svg>
